<svg width="300" height="217" viewBox="0 0 300 217" fill="none" xmlns="http://www.w3.org/2000/svg">
<path d="M230.179 44.7173C219.734 47.5252 209.064 55.1627 203.224 63.9233L201.127 67.0307L201.913 68.6406C202.662 70.1007 203.86 73.6948 204.384 76.0535C204.534 76.6525 204.759 77.1018 204.946 77.1018C205.133 77.1018 205.919 75.9786 206.668 74.6308C209.738 69.1648 216.14 61.5647 220.895 57.7834L223.141 55.9863L222.093 57.3716C213.444 68.7904 210 74.5185 201.389 91.7029C198.993 96.5325 195.062 103.945 192.703 108.176C185.403 121.13 183.568 124.611 183.83 125.023C184.317 125.81 185.627 125.36 186.975 123.975C187.724 123.226 189.708 120.793 191.43 118.584C195.848 112.931 199.592 109.748 206.294 106.004C210.374 103.721 215.204 101.999 219.509 101.25C224.975 100.276 227.858 100.726 223.104 101.774C220.633 102.335 214.568 104.395 211.273 105.78C205.844 108.064 199.517 112.257 200.341 113.005C200.94 113.567 206.219 115.214 208.877 115.701C212.92 116.375 219.509 115.963 223.066 114.765C228.757 112.856 232.426 110.572 237.555 105.705C241.261 102.148 243.732 99.0783 243.433 98.3295C243.32 98.03 242.122 97.2812 240.737 96.6448C232.014 92.4516 222.018 91.3285 215.017 93.762C209.925 95.5216 205.695 98.4418 200.678 103.758C198.918 105.63 197.495 107.015 197.495 106.903C197.495 106.454 199.817 102.036 201.164 99.9394C203.635 96.0458 206.481 93.4625 212.284 89.8684C220.333 84.8516 223.44 82.156 226.585 77.4387C229.318 73.4328 230.816 69.6515 231.752 64.747C233.175 57.2218 233.549 44.0434 232.351 44.1931C232.239 44.1931 231.265 44.4552 230.179 44.7173Z" fill="#2C4528"/>
<path d="M131.229 0.202678C131.229 0.314994 131.641 1.10121 132.165 1.9623C133.588 4.43325 134.336 8.28944 133.887 10.8727C133.213 14.7289 131.603 17.3871 126.811 22.5162C123.217 26.3349 121.532 28.8059 120.709 31.5389C119.249 36.2187 120.559 40.936 124.527 45.3163C126.624 47.6001 130.48 50.1085 130.48 49.1725C130.48 49.0602 129.806 47.5627 129.02 45.8405C126.399 40.4119 126.287 36.7429 128.496 32.9241C129.058 31.9882 131.192 29.4798 133.288 27.3083C138.155 22.2915 139.278 20.6817 140.252 17.4245C141.712 12.5949 140.701 8.06481 137.332 4.13374C135.497 1.9623 131.229 -0.770728 131.229 0.202678Z" fill="#2C4528"/>
<path d="M148.563 12.3329C148.675 12.857 149.05 14.2048 149.387 15.328C150.173 17.9487 149.948 21.0187 148.825 23.2276C147.814 25.1744 146.242 27.2335 142.535 31.1646C138.08 35.9942 136.882 39.2888 138.155 43.6317C138.642 45.3164 139.203 46.2524 140.589 47.6002C142.61 49.6593 143.359 49.8839 142.985 48.3864C142.835 47.8248 142.685 46.3273 142.685 45.0918C142.648 41.61 143.846 39.5134 148.825 34.4966C153.842 29.4424 154.928 27.4956 155.115 23.1901C155.227 21.0187 155.077 19.933 154.478 18.3231C153.692 16.1891 151.296 13.2314 149.424 12.1083L148.338 11.4344L148.563 12.3329Z" fill="#2C4528"/>
<path d="M106.332 55.7617C96.6356 56.211 89.7844 57.0347 88.5489 57.9706C87.6504 58.6071 87.6129 58.8692 87.5006 62.7253C87.3508 67.5549 87.9499 74.556 88.9607 80.0595C91.4317 93.6123 95.9992 103.009 104.049 111.246C107.044 114.316 110.488 116.787 114.943 119.108C116.89 120.119 117.976 120.905 117.564 120.905C117.152 120.943 116.141 120.98 115.318 121.055C114.494 121.092 108.616 121.167 102.214 121.205L90.608 121.28L92.1056 122.665C94.0149 124.387 97.1223 125.81 101.802 127.045C110.039 129.254 119.211 130.04 135.722 130.04C149.836 130.04 157.773 129.366 166.084 127.494C171.962 126.147 178.402 123.189 178.402 121.841C178.402 121.167 178.701 121.167 163.539 121.242C152.681 121.317 149.649 121.055 152.457 120.344C153.992 119.969 158.447 117.685 160.993 115.963C164.325 113.717 168.218 110.123 170.54 107.165L172.599 104.544L176.343 104.32C180.873 104.058 183.643 103.346 187.574 101.437C191.655 99.4527 194.65 96.9443 196.971 93.5374C199.892 89.232 200.678 86.5364 200.678 80.8457C200.678 76.353 200.64 76.0535 199.48 73.6574C198.244 71.0367 195.773 68.2288 193.827 67.218C191.88 66.2071 188.51 65.4958 185.478 65.4209L182.632 65.3835L182.37 61.9766C182.183 59.1687 182.033 58.4573 181.397 57.9332C180.236 56.9972 177.428 56.548 170.165 56.1361C161.143 55.612 115.505 55.3499 106.332 55.7617ZM135.534 64.1855C151.184 64.1855 166.908 64.0731 170.502 63.8859L176.979 63.6239L176.754 66.881C174.845 91.4408 167.956 105.93 154.815 113.006C143.097 119.295 125.389 118.846 114.045 111.995C103.038 105.331 95.5499 90.5797 93.7903 72.1599C93.5657 70.0259 93.3036 67.2554 93.1913 65.9451L92.9292 63.6239L100.005 63.8859C103.899 64.0731 119.885 64.1855 135.534 64.1855ZM189.633 72.8338C191.468 73.62 192.591 74.7432 193.602 76.9146C196.634 83.3541 191.43 93.163 183.157 96.4951C181.172 97.2813 176.605 98.2921 176.305 97.9552C176.23 97.9177 176.867 96.0832 177.69 93.9492C179.6 88.9699 181.135 83.0171 181.958 77.289C182.295 74.818 182.67 72.5717 182.745 72.2722C182.932 71.6358 187.649 72.0101 189.633 72.8338Z" fill="#2C4528"/>
<path d="M190.232 153.664C186.489 154.637 184.654 157.108 184.841 160.965C184.954 162.949 185.216 163.772 186.189 165.42C186.863 166.505 187.387 167.441 187.312 167.516C187.237 167.554 186.526 167.966 185.702 168.377C184.205 169.126 182.445 170.811 181.285 172.571C180.461 173.769 180.461 177.101 181.247 178.823C183.83 184.177 191.955 185.861 196.971 182.043L198.694 180.732L199.854 181.855C201.539 183.428 202.437 183.802 204.571 183.802C206.705 183.802 208.278 183.315 208.952 182.38C209.588 181.518 209.289 181.181 207.791 181.256C206.556 181.294 205.208 180.508 202.924 178.374L201.951 177.512L203.299 174.405C205.395 169.501 205.844 168.752 207.155 167.966C209.176 166.768 208.503 166.393 203.898 166.281C200.041 166.206 199.704 166.243 199.817 166.842C199.892 167.217 200.303 167.554 200.79 167.629C201.239 167.704 201.876 168.153 202.175 168.602C202.7 169.351 202.662 169.65 202.026 171.522C201.651 172.683 201.09 174.068 200.79 174.592L200.266 175.603L197.833 172.87C194.688 169.313 192.479 166.58 192.666 166.468C192.741 166.393 193.602 165.906 194.538 165.345C196.634 164.147 198.394 162.237 198.993 160.478C199.929 157.633 197.683 154.151 194.613 153.664C193.827 153.552 192.928 153.402 192.629 153.327C192.292 153.252 191.243 153.402 190.232 153.664ZM194.463 156.622C196.298 158.568 195.811 161.863 193.34 164.109L191.805 165.457L191.094 164.634C189.034 162.237 188.435 158.718 189.746 156.734C190.644 155.349 193.19 155.274 194.463 156.622ZM190.607 171.148C191.618 172.458 193.49 174.742 194.8 176.24C196.11 177.737 197.046 179.122 196.897 179.347C196.41 180.133 193.565 181.181 191.842 181.181C188.772 181.181 186.301 178.823 185.964 175.641C185.777 173.432 186.339 171.485 187.649 169.95C188.173 169.313 188.623 168.827 188.66 168.827C188.735 168.827 189.596 169.875 190.607 171.148Z" fill="#2C4528"/>
<path d="M11.9492 153.29C8.7295 154.001 6.25855 155.349 4.19942 157.558C1.91565 159.991 0.680176 162.649 0.193473 166.318C-0.29323 169.838 0.118596 172.496 1.65358 175.753C5.09795 183.016 14.7946 186.273 22.1326 182.604C24.1543 181.593 25.6892 179.272 25.7641 177.026C25.8764 175.042 24.8656 175.229 23.106 177.55C21.1217 180.208 18.838 181.369 15.7305 181.331C9.17877 181.331 4.91075 174.405 6.10879 165.832C6.74525 161.302 8.80438 158.007 11.9492 156.397C13.8212 155.424 17.8645 155.349 19.5867 156.247C21.0843 157.033 22.8065 159.168 23.4055 161.002C23.9296 162.537 24.641 162.911 25.0528 161.826C25.502 160.702 24.8282 155.573 24.1917 155.087C22.0951 153.439 15.5059 152.503 11.9492 153.29Z" fill="#2C4528"/>
<path d="M43.248 153.028C39.9534 153.477 36.7711 155.124 34.5997 157.445C32.7652 159.467 32.2036 160.44 31.3051 163.361C29.9198 167.853 30.5937 173.843 32.84 177.213C38.1938 185.337 49.4628 186.46 56.3141 179.572C63.1654 172.72 62.0422 160.291 54.1427 155.274C51.4845 153.589 46.4677 152.541 43.248 153.028ZM49.051 156.285C50.7358 156.959 52.3456 158.756 53.5811 161.227C54.5919 163.286 54.6668 163.66 54.6668 168.452C54.6668 173.207 54.5919 173.619 53.6185 175.753C51.7466 179.721 49.6126 181.219 45.6815 181.256C43.7722 181.294 43.0234 181.107 41.6007 180.283C37.3327 177.775 35.1987 170.923 36.6214 164.109C38.044 157.408 43.4726 153.964 49.051 156.285Z" fill="#2C4528"/>
<path d="M65.7112 154.488C65.7112 155.012 66.0107 155.386 66.5723 155.573C68.7437 156.21 68.7063 155.91 68.7063 168.902V180.882L67.2087 181.443C66.1979 181.855 65.7112 182.267 65.7112 182.754C65.7112 183.39 66.123 183.428 71.8511 183.428C75.7448 183.428 78.1034 183.278 78.2532 183.053C78.665 182.417 77.7664 181.668 76.3812 181.406C75.6699 181.256 74.9211 180.807 74.6965 180.433C74.4718 179.983 74.3595 177.737 74.397 174.929L74.5093 170.137L77.5044 170.287C80.7615 170.399 81.2857 170.661 82.0719 172.458C82.334 173.132 82.8207 173.694 83.1202 173.694C83.5694 173.694 83.6818 172.945 83.6818 169.201C83.6818 165.644 83.5694 164.708 83.1576 164.708C82.8956 164.708 82.4463 165.233 82.1468 165.869C81.5478 167.404 79.863 168.078 76.7556 168.078H74.3221L74.397 161.975L74.5093 155.91L77.6916 155.948C82.0719 155.985 83.532 156.771 84.9921 159.766C85.4039 160.553 85.8158 160.965 86.2276 160.89C86.9015 160.777 86.9015 160.628 86.7517 155.648L86.6769 153.514L76.194 153.589L65.7112 153.664V154.488Z" fill="#2C4528"/>
<path d="M91.5439 153.814C91.5439 154.563 92.0306 155.349 92.4799 155.349C92.742 155.349 93.3784 155.686 93.94 156.135L94.9134 156.884V168.078C94.9134 175.715 94.7637 179.572 94.5016 180.208C94.2395 180.77 93.5282 181.331 92.7794 181.593C91.9183 181.855 91.5439 182.192 91.6188 182.604C91.7311 183.166 92.5174 183.241 97.6839 183.353C100.979 183.39 103.786 183.316 103.974 183.128C104.535 182.567 103.861 181.556 102.963 181.556C102.476 181.556 101.727 181.219 101.241 180.845C100.379 180.171 100.342 179.909 100.342 175.191V170.249L102.963 170.137C106.37 169.987 107.081 170.324 108.092 172.383C109.552 175.341 109.926 174.667 109.814 169.276C109.702 164.334 109.402 163.66 108.354 165.794C108.054 166.468 107.53 167.179 107.231 167.367C106.931 167.554 105.247 167.704 103.412 167.704H100.117L100.23 161.788L100.342 155.91L103.749 155.948C107.905 155.985 109.252 156.622 110.563 159.205C112.06 162.088 112.547 161.601 112.472 157.221L112.435 153.477H101.989C96.074 153.477 91.5439 153.627 91.5439 153.814Z" fill="#2C4528"/>
<path d="M118.5 154.375C118.5 155.087 118.762 155.349 119.623 155.536C120.259 155.686 120.933 156.098 121.121 156.472C121.345 156.884 121.495 161.826 121.495 168.789C121.495 180.358 121.495 180.395 120.671 180.957C120.222 181.294 119.511 181.556 119.136 181.556C118.65 181.556 118.462 181.78 118.575 182.379L118.687 183.241L128.945 183.353C134.599 183.39 139.353 183.315 139.503 183.166C139.653 182.978 139.877 181.219 140.027 179.197C140.252 176.09 140.214 175.566 139.728 175.566C139.428 175.566 138.717 176.277 138.118 177.175C136.321 180.058 133.962 181.144 129.32 181.181C126.699 181.181 126.736 181.294 126.736 174.517V169.575H129.919C133.363 169.575 133.625 169.688 135.385 172.234C135.759 172.72 136.096 173.057 136.208 172.945C136.321 172.833 136.47 170.811 136.508 168.452C136.545 164.783 136.47 164.147 135.984 164.035C135.572 163.96 135.198 164.371 134.823 165.233C134.112 166.955 132.951 167.404 129.582 167.254L126.924 167.142V161.526V155.91L130.405 155.948C133.663 155.985 133.925 156.023 135.272 157.108C136.021 157.707 136.92 158.718 137.219 159.317C137.856 160.553 138.342 161.002 138.792 160.74C139.129 160.515 139.203 156.322 138.867 154.637L138.642 153.477H128.571H118.5V154.375Z" fill="#2C4528"/>
<path d="M146.204 154.45C146.204 154.974 146.429 155.349 146.729 155.349C147.028 155.349 147.739 155.761 148.338 156.247L149.387 157.146V167.966C149.387 173.881 149.237 179.235 149.087 179.796C148.9 180.508 148.376 181.032 147.477 181.406C146.579 181.78 146.204 182.155 146.279 182.604C146.392 183.166 147.365 183.241 157.137 183.353L167.844 183.428L168.256 181.069C168.481 179.759 168.668 177.962 168.668 177.101C168.668 175.004 167.994 175.154 166.346 177.587C164.587 180.208 163.052 180.882 158.522 181.107L154.815 181.294V175.191V169.126L157.773 169.238C160.918 169.388 162.041 169.95 162.715 171.709C162.902 172.196 163.277 172.571 163.613 172.571C164.063 172.571 164.175 171.897 164.175 168.452C164.175 165.195 164.063 164.334 163.651 164.334C163.389 164.334 162.94 164.858 162.678 165.495C162.041 166.955 161.03 167.329 157.623 167.329H154.89L154.74 161.975C154.666 159.055 154.666 156.434 154.778 156.135C154.89 155.723 155.639 155.648 158.147 155.798C161.854 156.023 163.576 156.734 164.475 158.419C164.849 159.055 165.411 159.916 165.747 160.365C166.721 161.526 167.208 160.553 167.02 157.782C166.908 156.547 166.833 155.087 166.833 154.562L166.796 153.589L156.5 153.552L146.204 153.514V154.45Z" fill="#2C4528"/>
<path d="M216.814 155.498C216.702 156.547 216.589 158.306 216.589 159.392C216.589 161.114 216.702 161.376 217.263 161.264C217.6 161.189 218.199 160.553 218.536 159.841C219.697 157.558 220.932 156.547 223.141 156.097C226.81 155.349 226.51 154.263 226.51 168.153C226.51 174.854 226.398 180.47 226.248 180.62C226.136 180.77 225.35 181.107 224.564 181.369C223.628 181.706 223.141 182.08 223.141 182.567C223.141 183.203 223.59 183.241 229.431 183.353L235.683 183.428V182.492C235.683 181.743 235.496 181.556 234.784 181.556C234.298 181.556 233.512 181.219 233.025 180.844L232.126 180.133L232.014 167.853L231.902 155.611L233.848 155.835C236.619 156.172 238.79 157.558 239.764 159.654C240.213 160.59 240.812 161.339 241.112 161.339C241.561 161.339 241.673 160.665 241.673 157.483V153.664L229.356 153.627L217.038 153.589L216.814 155.498Z" fill="#2C4528"/>
<path d="M246.166 154.413C246.166 155.012 246.465 155.349 247.102 155.498C249.124 156.023 249.198 156.472 249.086 169.051L248.974 180.582L247.476 181.443C244.481 183.091 245.118 183.241 256.686 183.353L267.394 183.428L267.656 182.23C268.105 180.058 268.367 176.015 268.105 175.341C267.88 174.742 267.805 174.742 267.132 175.378C266.72 175.753 266.383 176.24 266.383 176.464C266.383 177.213 263.762 179.721 262.377 180.32C261.591 180.62 259.569 180.994 257.884 181.107L254.777 181.294V175.304V169.313L257.21 169.238C260.28 169.164 261.965 169.837 262.639 171.41C262.901 172.084 263.35 172.571 263.65 172.496C263.949 172.421 264.174 172.271 264.174 172.084C264.137 171.934 264.137 170.137 264.137 168.078C264.137 165.045 264.024 164.334 263.612 164.334C263.313 164.334 262.826 164.783 262.564 165.345C261.853 166.805 260.58 167.329 257.51 167.329H254.777V161.526V155.723H257.734C262.115 155.723 264.174 156.659 265.522 159.28C266.121 160.365 266.682 160.965 267.244 160.965C267.543 160.965 267.581 155.536 267.281 154.338C267.057 153.552 267.019 153.552 256.611 153.552H246.166V154.413Z" fill="#2C4528"/>
<path d="M280.272 165.008C274.657 180.058 274.357 180.732 273.047 181.406C272.373 181.743 271.999 182.23 272.073 182.604C272.186 183.166 272.785 183.241 276.416 183.353C280.572 183.465 280.609 183.465 280.609 182.567C280.609 181.93 280.31 181.631 279.411 181.369C277.839 180.882 277.727 179.946 278.85 176.502L279.748 173.881L284.615 173.769L289.482 173.656L290.081 175.266C291.13 178.111 291.579 179.983 291.354 180.582C291.242 180.882 290.568 181.294 289.894 181.481C289.033 181.706 288.659 182.005 288.659 182.529C288.659 183.203 288.958 183.241 294.237 183.241C300.377 183.241 301.088 182.979 298.805 181.481C297.906 180.919 297.157 179.946 296.558 178.561C295.735 176.726 288.172 156.397 287.573 154.3C287.348 153.627 287.011 153.477 285.926 153.477H284.541L280.272 165.008ZM286.6 165.757C287.386 167.966 288.135 170.062 288.284 170.399C288.546 170.998 288.209 171.073 284.615 171.073H280.647L281.807 167.966C282.444 166.281 283.305 163.922 283.717 162.724C284.615 160.141 284.578 160.103 286.6 165.757Z" fill="#2C4528"/>
<path d="M59.4216 202.447C58.0364 202.896 55.9398 204.768 55.3782 206.116C54.7043 207.726 54.7043 210.87 55.3782 212.218C58.0364 217.31 65.6739 217.235 67.9951 212.106C70.0542 207.576 67.1714 202.671 62.1921 202.334C61.1438 202.259 59.9083 202.297 59.4216 202.447ZM64.3635 205.367C65.5241 206.527 66.198 208.811 65.8611 210.271C65.4118 212.106 63.9517 213.716 62.4541 213.978C58.2984 214.764 55.6777 209.073 58.6354 205.704C59.6462 204.543 60.0206 204.393 61.5931 204.393C63.0157 204.393 63.5773 204.581 64.3635 205.367Z" fill="#2C4528"/>
<path d="M75.0708 209.261V216H76.194H77.3171V211.657C77.3171 209.261 77.4669 207.389 77.6541 207.463C78.1033 207.651 80.6117 210.608 82.7457 213.491C84.2433 215.55 84.7674 216 85.6285 216H86.6768V209.261V202.522H85.5536H84.4679L84.3556 207.014L84.2433 211.507L82.4837 209.186C77.4294 202.372 77.5792 202.522 76.3063 202.522H75.0708V209.261Z" fill="#2C4528"/>
<path d="M94.1647 209.261V216H98.4701H102.776V214.876V213.753H99.7805H96.7854V208.137V202.522H95.475H94.1647V209.261Z" fill="#2C4528"/>
<path d="M109.589 209.148L109.702 215.812L110.937 215.925L112.135 216.037V209.298V202.521H110.825H109.515L109.589 209.148Z" fill="#2C4528"/>
<path d="M119.211 202.671C119.136 202.746 119.099 205.779 119.174 209.41L119.286 216H120.372H121.458L121.57 211.507L121.682 207.014L125.052 211.507C127.934 215.326 128.571 216 129.469 216H130.48V209.261V202.522H129.469H128.421L128.533 207.014C128.646 210.084 128.533 211.507 128.271 211.507C128.047 211.507 127.86 211.395 127.86 211.207C127.86 210.908 124.265 206.041 122.431 203.907C121.645 203.008 120.933 202.522 120.297 202.522C119.81 202.522 119.286 202.596 119.211 202.671Z" fill="#2C4528"/>
<path d="M138.005 209.26L137.931 216.037L142.723 215.925L147.515 215.812V214.876C147.515 213.94 147.477 213.94 144.07 213.828L140.589 213.716V211.881V210.009H143.397C146.13 210.009 146.204 209.972 146.204 209.073C146.204 208.175 146.13 208.137 143.397 208.137H140.589V206.265V204.393H143.921C146.878 204.393 147.253 204.319 147.44 203.682C147.552 203.27 147.515 202.858 147.403 202.746C147.29 202.634 145.156 202.521 142.648 202.521H138.118L138.005 209.26Z" fill="#2C4528"/>
<path d="M165.448 202.858C163.763 203.645 163.426 204.169 163.426 206.228C163.426 208.062 164.362 208.924 167.732 210.271C170.652 211.469 171.288 212.443 169.716 213.529C168.593 214.352 167.357 214.277 165.411 213.341C163.576 212.443 163.501 212.48 163.351 213.753C163.127 215.625 167.657 216.823 170.502 215.625C171.85 215.101 172.786 213.566 172.786 211.994C172.786 210.084 171.887 209.335 167.47 207.426C165.635 206.677 165.148 205.666 166.159 204.843C167.17 203.982 169.753 204.281 170.989 205.404C171.588 205.928 171.663 205.891 171.887 204.992C172.224 203.57 171.85 202.971 170.278 202.559C168.293 201.997 167.208 202.072 165.448 202.858Z" fill="#2C4528"/>
<path d="M183.381 202.409L177.653 202.559V203.682V204.843L180.012 204.73L182.333 204.581L182.445 210.271L182.557 216H183.643H184.729L184.841 210.271L184.954 204.581L187.125 204.656L189.259 204.73V203.42C189.259 202.746 189.222 202.185 189.184 202.222C189.109 202.26 186.488 202.372 183.381 202.409Z" fill="#2C4528"/>
<path d="M197.683 202.858C194.987 204.094 193.752 206.078 193.752 209.148C193.752 211.282 194.875 213.603 196.447 214.876C197.832 215.962 201.689 216.374 203.486 215.625C205.096 214.951 207.155 212.518 207.454 210.945C208.577 204.992 203.036 200.387 197.683 202.858ZM202.774 204.768C203.673 205.255 204.983 207.8 204.983 209.073C204.983 211.469 202.849 214.127 200.977 214.127C200.453 214.127 199.442 213.828 198.731 213.491C195.773 212.106 195.549 206.939 198.319 204.992C199.293 204.319 201.689 204.206 202.774 204.768Z" fill="#2C4528"/>
<path d="M214.343 209.261V216H215.653H216.964V213.566C216.964 211.132 216.964 211.132 218.012 211.132C219.21 211.132 219.772 211.657 221.232 214.202C222.205 215.887 222.355 216 223.703 215.925L225.163 215.887L224.227 214.352C221.98 210.683 221.98 210.683 223.478 209.186C225.762 206.902 225.2 203.982 222.28 202.859C221.793 202.671 219.809 202.522 217.862 202.522H214.343V209.261ZM221.718 205.367C222.43 206.34 222.317 207.651 221.456 208.512C220.895 209.073 220.221 209.261 218.836 209.261H216.964V206.79V204.281L219.098 204.506C220.52 204.656 221.419 204.955 221.718 205.367Z" fill="#2C4528"/>
<path d="M231.902 202.671C231.827 202.746 231.789 205.779 231.864 209.41L231.977 216H236.656H241.336L241.224 214.951L241.112 213.94L237.667 213.828L234.186 213.716V211.881V210.009H236.993C239.726 210.009 239.801 209.972 239.801 209.073C239.801 208.175 239.726 208.137 236.993 208.137H234.186V206.265V204.394H237.555C240.887 204.394 240.924 204.394 240.924 203.458V202.522H236.507C234.073 202.522 231.977 202.596 231.902 202.671Z" fill="#2C4528"/>
</svg>
