<svg width="200" height="40" viewBox="0 0 200 40" fill="none" xmlns="http://www.w3.org/2000/svg">
<g clip-path="url(#clip0_2001_32)">
<path d="M19.4945 20.0366L0 0.110596V39.9625L19.4945 20.0366Z" fill="#E36B40"/>
<path fill-rule="evenodd" clip-rule="evenodd" d="M42.7885 0.304891C45.1258 -0.045638 47.245 0.0794553 49.1462 0.68017C50.9931 1.25702 52.6488 2.3245 53.9365 3.7687C55.2369 5.21363 56.1969 7.04855 56.8163 9.27347C56.9835 9.87912 57.1175 10.4935 57.2177 11.1137C57.6871 10.4289 58.2178 9.78812 58.8031 9.19922C59.5479 8.44816 60.3601 7.76699 61.2294 7.16428C61.9415 6.6715 62.6988 6.24749 63.4911 5.89796C64.0664 5.64714 64.6546 5.42675 65.2531 5.23771C65.3805 5.2127 65.5065 5.18054 65.6304 5.14138C65.7621 5.09926 65.8961 5.06442 66.0317 5.03703C67.1091 4.79818 68.225 4.79202 69.3049 5.01897C70.2225 5.23497 71.0957 5.60843 71.8857 6.12273C72.2497 6.3719 72.5761 6.67196 72.855 7.01377C73.447 7.75264 73.8592 8.61897 74.0591 9.5444C74.1597 10.017 74.1895 10.5019 74.1474 10.9833C74.1384 11.4946 74.0434 12.0007 73.8665 12.4804C73.6909 12.9489 73.4431 13.387 73.1319 13.7788C72.8274 14.1637 72.4604 14.4948 72.0462 14.7582C71.6258 15.0297 71.157 15.2177 70.6655 15.3121C70.0706 15.4434 69.4543 15.4434 68.8594 15.3121C68.3371 15.1874 67.8517 14.9413 67.4425 14.5936C67.0385 14.238 66.7289 13.7878 66.5415 13.2831C66.3226 12.7165 66.2288 12.1093 66.2665 11.5031L66.3007 11.186C65.4972 11.4581 64.7615 11.8995 64.1433 12.4804C63.4254 13.136 62.8009 13.8868 62.287 14.712C61.7399 15.6057 61.2956 16.5583 60.9624 17.5517C60.6209 18.563 60.4256 19.6179 60.3825 20.6844C60.3303 21.8463 60.4567 22.8217 60.7838 23.6164C61.0498 24.336 61.5079 24.969 62.1084 25.4466C62.7034 25.8924 63.4052 26.1741 64.1433 26.2634C64.9857 26.373 65.8406 26.3398 66.6719 26.1651C67.8446 25.9177 68.9768 25.5069 70.0354 24.9449C71.2362 24.3198 72.3591 23.5552 73.3808 22.6671C74.4748 21.7254 75.4596 20.6638 76.3168 19.5024C76.9619 18.6353 77.5192 17.7062 77.9805 16.7289L78.9076 10.2267C79.018 9.4581 78.8555 9.02262 78.422 8.83398C78.2446 8.75266 78.0545 8.70242 77.8601 8.68547C77.6182 8.67674 77.376 8.68613 77.1356 8.71356C76.8085 8.74567 76.676 8.59918 76.7162 8.28209L77.2119 4.40487C77.2375 4.25915 77.2973 4.1216 77.3865 4.0035C77.4296 3.94248 77.4845 3.89065 77.5479 3.85103C77.6113 3.81141 77.6819 3.78479 77.7557 3.77272C78.1571 3.69044 78.6066 3.61016 79.0782 3.52989C79.5471 3.44789 80.0213 3.40026 80.4971 3.3874C80.9603 3.37649 81.4234 3.41687 81.8778 3.50781C82.3218 3.58504 82.7445 3.75534 83.118 4.00752C84.288 4.81025 84.7435 6.3194 84.4305 8.46672L82.8832 19.103C82.6645 20.6222 82.815 21.7119 83.3327 22.344C83.8505 22.9762 84.6733 23.1869 85.7791 22.9682C89.2228 22.2858 90.9768 18.3083 90.1941 15.1154C90.0757 15.1636 89.9553 15.2057 89.8469 15.2398C89.7386 15.2739 89.6101 15.304 89.4737 15.3321C88.9903 15.4372 88.4893 15.431 88.0087 15.3141C87.5804 15.2063 87.1849 14.9955 86.8567 14.7C86.5269 14.3915 86.274 14.0101 86.1182 13.5862C85.938 13.102 85.8694 12.5834 85.9175 12.069C85.9496 11.6303 86.0597 11.2008 86.2426 10.8007C86.4217 10.4041 86.6613 10.0378 86.9531 9.71498C87.2441 9.38994 87.5823 9.11053 87.9565 8.88615C88.3342 8.65941 88.7484 8.49984 89.1807 8.41455C90.0208 8.24314 90.8939 8.35097 91.6671 8.72159C92.4938 9.11923 93.1976 9.73288 93.7041 10.4976C94.3181 11.4384 94.7459 12.4882 94.9644 13.5902C96.4113 20.1024 92.201 26.9277 85.5744 28.2402C84.3861 28.5031 83.1564 28.5182 81.9621 28.2843C80.949 28.0787 80.0091 27.607 79.2388 26.9176C78.9284 26.6283 78.6529 26.3037 78.418 25.9503C77.9263 26.4101 77.4112 26.8442 76.8747 27.2508C75.9176 27.9846 74.9021 28.639 73.8384 29.2075C72.7807 29.7814 71.6828 30.2778 70.5532 30.6925C69.457 31.0975 68.3312 31.4169 67.1857 31.6478C66.0263 31.8791 64.8478 32.0007 63.6657 32.011C62.5675 32.0251 61.4721 31.8976 60.4066 31.6317C59.419 31.392 58.4764 30.9949 57.615 30.4557C56.7726 29.9176 56.0465 29.2161 55.4798 28.3927C55.1069 27.8495 54.7997 27.2641 54.5646 26.6487C53.9162 27.8765 53.1493 29.038 52.2748 30.1166C50.9254 31.7977 49.3009 33.2383 47.4704 34.3771C45.6667 35.5063 43.6709 36.2947 41.5824 36.703L41.0546 36.8074C40.8805 36.8415 40.704 36.8623 40.5268 36.8696C38.2109 37.2161 36.0963 37.0903 34.1831 36.4923C32.3307 35.9166 30.6649 34.8582 29.3567 33.4258C28.0482 31.9863 27.0836 30.1547 26.4628 27.9311C25.842 25.7075 25.6607 23.1434 25.919 20.2389C26.0982 17.7324 26.6558 15.2676 27.5726 12.9279C28.4038 10.7912 29.5622 8.79661 31.0063 7.01578C32.3711 5.33778 34.0105 3.9033 35.8548 2.77331C37.6594 1.66263 39.648 0.883741 41.7269 0.473466L42.2547 0.36911C42.4307 0.334428 42.6092 0.312962 42.7885 0.304891ZM156.46 15.7435C156.413 16.3973 156.421 17.0538 156.484 17.7062C155.882 18.4957 155.198 19.2201 154.445 19.8676C153.682 20.5309 152.843 21.1021 151.947 21.5694C151.156 21.9889 150.31 22.2956 149.434 22.4805C148.813 22.6106 148.175 22.6357 147.546 22.5548C146.995 22.4913 146.47 22.2837 146.024 21.9527C145.575 21.5969 145.233 21.124 145.035 20.5861C144.783 19.8854 144.682 19.1391 144.74 18.3966C144.772 17.5999 144.918 16.8119 145.174 16.0566C145.423 15.3147 145.755 14.6032 146.163 13.9354C146.548 13.3194 147.014 12.7584 147.55 12.2677C148.01 11.8352 148.557 11.5061 149.155 11.3024L149.131 11.5392C149.1 11.992 149.169 12.4461 149.332 12.8697C149.473 13.2464 149.706 13.5817 150.01 13.8451C150.315 14.1064 150.679 14.2908 151.07 14.3829C151.511 14.4805 151.969 14.4805 152.41 14.3829C152.778 14.3135 153.128 14.1731 153.442 13.9695C153.752 13.773 154.027 13.5253 154.255 13.237C154.487 12.9449 154.672 12.6177 154.802 12.2677C154.936 11.9097 155.007 11.5317 155.013 11.1499C155.045 10.7906 155.022 10.4286 154.945 10.0762C154.871 9.72913 154.756 9.39222 154.602 9.07279C154.454 8.76025 154.27 8.46596 154.054 8.1958C153.845 7.94049 153.601 7.71615 153.329 7.52953C152.739 7.14459 152.087 6.86547 151.401 6.70471C150.594 6.53471 149.761 6.5395 148.956 6.71876C148.854 6.73873 148.752 6.76419 148.651 6.79502C148.559 6.82563 148.466 6.85043 148.37 6.86928C147.923 7.00946 147.482 7.17359 147.052 7.36095C146.461 7.62237 145.895 7.93955 145.364 8.30818C144.716 8.75761 144.112 9.26618 143.558 9.82736C142.909 10.4904 142.345 11.232 141.88 12.0349C141.659 12.4075 141.458 12.792 141.278 13.1868C140.883 12.0082 140.186 10.9532 139.257 10.1264C138.31 9.3159 137.169 8.76301 135.946 8.52091C134.523 8.24432 133.059 8.26139 131.643 8.57108C128.782 9.12882 126.182 10.6092 124.242 12.7855C123.271 13.87 122.481 15.1049 121.904 16.4419C121.298 17.8567 120.919 19.3582 120.78 20.8911C120.664 22.5782 120.835 24.0599 121.294 25.3363C121.393 25.6038 121.502 25.8647 121.619 26.1189C121.201 26.2574 120.775 26.3713 120.343 26.4601C119.94 26.5459 119.521 26.5088 119.139 26.3537C118.83 26.2132 118.577 25.864 118.38 25.3102L109.612 3.13655C109.404 2.58878 109.086 2.08902 108.679 1.66754C108.26 1.24512 107.772 0.897588 107.236 0.640034C106.688 0.36612 106.099 0.181188 105.492 0.0921653C104.879 0.00465561 104.255 0.0229829 103.648 0.14635C103.106 0.254475 102.586 0.453269 102.111 0.734355C101.606 1.03575 101.167 1.43489 100.818 1.90836C100.421 2.45663 100.117 3.06695 99.9193 3.71452C99.6818 4.52467 99.5622 5.36479 99.5641 6.20902C99.5644 6.3646 99.5972 6.51839 99.6604 6.66056C99.6868 6.70357 99.7268 6.73645 99.7742 6.75392C99.8215 6.77139 99.8733 6.77244 99.9213 6.75689C99.9676 6.74632 100.013 6.73084 100.056 6.71074C100.111 6.68366 100.164 6.65212 100.214 6.61641C100.501 6.44573 100.804 6.30261 101.117 6.18896C101.442 6.07666 101.774 5.98813 102.111 5.92405C102.452 5.83959 102.809 5.85113 103.144 5.95739C103.479 6.06365 103.777 6.26049 104.007 6.52611L94.254 29.2195C94.0379 29.7774 93.6999 30.28 93.2646 30.6905C92.8432 31.0919 90.6336 31.6939 90.0536 31.9669C89.7045 32.1314 89.4115 32.3341 89.3814 32.6532L89.0843 35.9525C89.0601 36.0846 89.0656 36.2205 89.1003 36.3503C89.135 36.4801 89.1981 36.6006 89.285 36.703C89.4656 36.8917 89.7185 36.8254 90.0376 36.8917C91.0531 37.1044 93.4392 36.9699 94.252 36.6769C95.0581 36.3896 95.8284 36.0105 96.5478 35.5471C97.2568 35.0875 97.895 34.5271 98.4423 33.8834C99.0235 33.1985 99.4934 32.4264 99.835 31.5956L100.321 30.5681L104.232 21.2824L107.024 14.3829L112.609 29.0188C112.832 29.6643 113.166 30.2655 113.598 30.7949C113.99 31.253 114.481 31.6172 115.033 31.8605C115.318 31.9867 115.615 32.0835 115.92 32.1495V32.1655C116.121 32.1856 116.548 32.312 116.751 32.3181C119.57 32.4064 122.737 31.4531 125.057 29.5085C125.576 29.7388 126.118 29.9137 126.675 30.0303C128.091 30.3065 129.549 30.2901 130.959 29.9821C132.741 29.6415 134.432 28.9312 135.922 27.897C137.955 26.4159 139.416 24.686 140.337 22.7554C140.516 23.2525 140.758 23.7246 141.058 24.1602C141.481 24.7757 142.023 25.2998 142.653 25.7015C143.296 26.1049 144 26.4017 144.738 26.5805C145.535 26.7784 146.354 26.8729 147.174 26.8615C148.058 26.8545 148.939 26.7638 149.805 26.5905C150.661 26.4187 151.502 26.1805 152.32 25.8781C153.164 25.5673 153.984 25.1964 154.774 24.7683C155.569 24.3431 156.329 23.8539 157.044 23.3053C157.532 22.9335 157.997 22.5313 158.435 22.1012C158.519 22.1855 158.607 22.2658 158.698 22.344C159.531 23.0534 160.532 23.5371 161.606 23.7488C162.843 23.9918 164.118 23.9781 165.35 23.7087C166.907 23.4112 168.384 22.7904 169.685 21.8865C171.164 20.8481 172.395 19.4961 173.291 17.927C173.664 18.6815 174.22 19.3302 174.909 19.8134C175.462 20.1888 176.072 20.4721 176.715 20.6523C177.405 20.8522 178.118 20.9621 178.836 20.9794C179.61 21.0018 180.384 20.9507 181.148 20.8269C181.902 20.7044 182.646 20.5232 183.372 20.285C184.121 20.042 184.85 19.7442 185.555 19.394C186.266 19.0501 186.947 18.6473 187.59 18.1899C188.03 17.8823 188.449 17.5472 188.847 17.1865C188.951 17.329 189.066 17.4632 189.192 17.5878C189.686 18.0536 190.293 18.3817 190.954 18.5391C191.736 18.718 192.546 18.7385 193.336 18.5993C197.735 17.9129 200.675 13.6042 199.878 9.3678C199.761 8.64828 199.504 7.95849 199.124 7.33687C198.807 6.82512 198.358 6.40894 197.823 6.13276C197.322 5.87315 196.751 5.78167 196.194 5.87187C195.907 5.91724 195.63 6.01088 195.375 6.14882C195.124 6.28375 194.896 6.45559 194.696 6.65856C194.497 6.85949 194.329 7.09038 194.201 7.34289C194.073 7.59408 193.99 7.86578 193.956 8.14563C193.911 8.47696 193.943 8.81419 194.05 9.13099C194.14 9.4099 194.295 9.6636 194.502 9.87151C194.711 10.0716 194.967 10.217 195.246 10.295C195.56 10.3843 195.89 10.4008 196.212 10.3431C196.3 10.3291 196.382 10.313 196.458 10.293C196.535 10.2729 196.611 10.2508 196.691 10.2227C197.127 12.3058 195.876 14.8385 193.591 15.1896C192.856 15.304 192.322 15.1515 191.985 14.7261C191.648 14.3006 191.584 13.5982 191.768 12.6209L193.059 5.77956C193.316 4.39885 193.059 3.41148 192.296 2.85158C192.056 2.68037 191.782 2.56017 191.494 2.49837C191.196 2.42983 190.892 2.39283 190.586 2.38799C190.272 2.38445 189.958 2.4039 189.647 2.44619C189.334 2.48633 189.045 2.52847 188.77 2.57062C188.672 2.58279 188.583 2.63328 188.521 2.7111C188.459 2.78667 188.417 2.87621 188.397 2.97199L187.97 5.45646C187.935 5.65714 188.018 5.75748 188.234 5.74544C188.393 5.73337 188.553 5.73337 188.712 5.74544C188.84 5.76028 188.964 5.79765 189.079 5.85582C189.36 5.98225 189.457 6.27324 189.366 6.76693L188.515 11.3967C188.199 11.9942 187.826 12.5607 187.404 13.0885C186.812 13.8306 186.139 14.5038 185.397 15.0953C184.707 15.6498 183.955 16.1213 183.155 16.5001C182.449 16.842 181.699 17.0826 180.926 17.2146C180.378 17.3079 179.818 17.3079 179.27 17.2146C178.789 17.1385 178.337 16.937 177.959 16.6306C177.578 16.3036 177.294 15.878 177.139 15.4004C176.94 14.7781 176.876 14.1206 176.952 13.4718C177.008 12.7753 177.162 12.0903 177.41 11.4369C177.651 10.7946 177.965 10.1819 178.345 9.61062C178.701 9.08613 179.128 8.61282 179.613 8.20383C180.032 7.8394 180.524 7.56908 181.056 7.41112L181.026 7.61181C180.986 8.00759 181.032 8.40727 181.16 8.7838C181.273 9.11796 181.466 9.41922 181.722 9.6608C181.981 9.89857 182.293 10.0718 182.631 10.1665C183.014 10.2687 183.415 10.2858 183.805 10.2167C184.129 10.1676 184.44 10.0558 184.72 9.88757C185.003 9.72648 185.255 9.5173 185.465 9.26946C185.679 9.02161 185.852 8.74111 185.977 8.43863C186.104 8.12956 186.179 7.80119 186.197 7.46732C186.237 7.15348 186.229 6.83553 186.173 6.5241C186.121 6.21465 186.032 5.91271 185.906 5.62503C185.786 5.35196 185.634 5.09344 185.455 4.8544C185.28 4.62613 185.074 4.42348 184.843 4.25235C184.34 3.89069 183.777 3.61908 183.181 3.44961C182.481 3.27444 181.752 3.25117 181.042 3.38138C180.952 3.39568 180.863 3.41511 180.775 3.43958C180.693 3.46166 180.606 3.47972 180.524 3.49376C180.128 3.60189 179.738 3.73118 179.356 3.88109C178.83 4.0898 178.324 4.34853 177.847 4.65372C177.264 5.0266 176.717 5.4518 176.211 5.92405C175.622 6.48272 175.104 7.11232 174.67 7.79844C174.508 8.04529 174.353 8.30818 174.205 8.58312C173.849 7.72018 173.299 6.95051 172.599 6.33345C171.772 5.62463 170.776 5.14083 169.707 4.92866C168.464 4.68617 167.184 4.7012 165.946 4.97281C163.446 5.46467 161.176 6.76245 159.484 8.66741C158.636 9.61462 157.946 10.6928 157.441 11.8603C156.912 13.0965 156.581 14.4083 156.46 15.7476V15.7435ZM165.214 19.3037C164.685 19.4195 164.137 19.4195 163.608 19.3037C163.155 19.2043 162.738 18.9813 162.404 18.6595C162.053 18.3055 161.801 17.8653 161.674 17.3831C161.505 16.7743 161.437 16.1417 161.473 15.5107C161.5 14.7324 161.638 13.9618 161.885 13.2229C162.101 12.5573 162.423 11.9311 162.84 11.3686C163.232 10.8435 163.714 10.3912 164.263 10.0321C164.812 9.67526 165.425 9.42853 166.069 9.30558C166.562 9.19769 167.07 9.18475 167.568 9.26745C167.998 9.34134 168.404 9.52213 168.746 9.79325C169.089 10.0854 169.355 10.4567 169.523 10.8749C169.728 11.3862 169.841 11.9298 169.856 12.4804C170.227 15.2278 168.092 18.7418 165.214 19.3037ZM130.793 24.9509C130.191 25.0824 129.568 25.0824 128.966 24.9509C128.448 24.8364 127.971 24.5817 127.588 24.2144C127.186 23.8087 126.899 23.305 126.753 22.7534C126.556 22.0569 126.478 21.3325 126.52 20.6101C126.551 19.7225 126.709 18.8438 126.99 18.0012C127.238 17.2399 127.607 16.5236 128.083 15.88C128.531 15.2778 129.082 14.76 129.711 14.3508C130.337 13.9429 131.036 13.6594 131.77 13.5159C132.334 13.3938 132.916 13.3795 133.486 13.4738C133.978 13.5586 134.441 13.7656 134.832 14.0759C135.225 14.4067 135.532 14.8282 135.725 15.304C135.96 15.8859 136.088 16.5051 136.105 17.1323C136.532 20.277 134.086 24.3007 130.793 24.959V24.9509ZM42.8447 6.74686L42.2306 6.86727C40.8848 7.13536 39.6024 7.65705 38.4517 8.40451C37.2564 9.17787 36.2107 10.161 35.3652 11.3064C34.4428 12.5477 33.7202 13.9257 33.2239 15.3903C32.657 17.0364 32.3332 18.7563 32.2626 20.4957C32.1168 22.0417 32.2267 23.6012 32.5877 25.1115C32.8677 26.3059 33.4168 27.4207 34.1932 28.3706C34.9019 29.2144 35.8349 29.8406 36.8843 30.1768C38.0462 30.53 39.2727 30.6164 40.4726 30.4296L41.0746 30.3092C42.4324 30.0413 43.7265 29.5169 44.8876 28.7639C46.0829 27.988 47.1336 27.0094 47.9922 25.8721C48.9176 24.6278 49.644 23.2474 50.1456 21.7801C50.705 20.1396 51.0241 18.4267 51.0928 16.6948C51.2214 15.1378 51.1063 13.5704 50.7516 12.0489C50.4711 10.8462 49.9223 9.72243 49.1462 8.76173C48.437 7.91839 47.5041 7.29234 46.455 6.95557C45.2848 6.60251 44.0477 6.531 42.8447 6.74686Z" fill="#E36B40"/>
</g>
<defs>
<clipPath id="clip0_2001_32">
<rect width="200" height="39.9242" fill="white" transform="translate(0 0.0378418)"/>
</clipPath>
</defs>
</svg>
