<svg width="108" height="29" viewBox="0 0 108 29" fill="none" xmlns="http://www.w3.org/2000/svg">
    <g clip-path="url(#clip0_122_2281)">
        <path d="M7.22266 15.9795C7.22266 16.2614 7.36228 16.4023 7.64151 16.4023C8.13018 16.4023 8.40943 15.9795 8.47924 15.3452C8.33962 15.3452 8.33962 15.3452 8.2 15.3452C7.5717 15.3452 7.22266 15.5567 7.22266 15.9795Z" fill="#DCDCDC"/>
        <path d="M25.0938 15.9795C25.0938 16.2614 25.2334 16.4023 25.5126 16.4023C26.0012 16.4023 26.2805 15.9795 26.3503 15.3452C26.2107 15.3452 26.2107 15.3452 26.0711 15.3452C25.373 15.3452 25.0938 15.5567 25.0938 15.9795Z" fill="#DCDCDC"/>
        <path d="M16.577 13.8652C16.228 13.8652 15.9488 14.1471 15.8789 14.6404H17.1355C17.1355 14.4995 17.2751 13.8652 16.577 13.8652Z" fill="#DCDCDC"/>
        <path d="M31.7259 14.0061C31.2373 14.0061 30.8184 14.6403 30.8184 15.486C30.8184 16.0498 31.0278 16.3316 31.3769 16.3316C31.9354 16.3316 32.2844 15.6974 32.2844 14.8518C32.3542 14.288 32.1447 14.0061 31.7259 14.0061Z" fill="#DCDCDC"/>
        <path d="M24.4658 4C21.813 4 19.3697 4.98658 17.4848 6.67786C15.6697 4.98658 13.2264 4 10.5736 4C4.84916 4 0.171875 8.72148 0.171875 14.5C0.171875 20.2786 4.84916 25 10.5736 25C13.2264 25 15.6697 24.0135 17.4848 22.3221C19.2999 24.0135 21.7433 25 24.4658 25C30.1903 25 34.8675 20.2786 34.8675 14.5C34.8675 8.72148 30.1903 4 24.4658 4ZM4.56991 17.3187L5.19821 13.2315L3.7322 17.3187H2.96428L2.89447 13.2315L2.19637 17.3187H1.14922L2.05675 11.9631H3.66239L3.7322 15.2752L4.84916 11.9631H6.59441L5.68688 17.3187H4.56991ZM8.33966 17.3187V16.896C8.06043 17.2484 7.64157 17.3892 7.15289 17.3892C6.5246 17.3892 6.10574 16.896 6.10574 16.1912C6.10574 15.1342 6.80384 14.5 8.06043 14.5C8.20005 14.5 8.33966 14.5 8.5491 14.5C8.61891 14.359 8.61891 14.2886 8.61891 14.2181C8.61891 13.9363 8.40947 13.7953 7.9208 13.7953C7.36232 13.7953 6.94346 13.9363 6.73403 14.0067C6.73403 13.9363 6.87365 13.0201 6.87365 13.0201C7.43213 12.8792 7.78118 12.8087 8.20005 12.8087C9.17739 12.8087 9.66607 13.2315 9.66607 14.0772C9.66607 14.2886 9.66607 14.5705 9.59622 14.9228C9.52646 15.557 9.31701 16.896 9.2472 17.2484C9.10758 17.3187 8.33966 17.3187 8.33966 17.3187ZM11.6906 14.7114C12.2491 14.9933 12.4584 15.3457 12.4584 15.9094C12.4584 16.896 11.9 17.3892 10.7132 17.3892C10.0151 17.3892 9.80567 17.3187 9.52646 17.2484C9.52646 17.1779 9.66607 16.2617 9.66607 16.2617C10.0151 16.4027 10.3642 16.4027 10.7132 16.4027C11.132 16.4027 11.3415 16.2617 11.3415 15.9799C11.3415 15.7685 11.2717 15.698 10.783 15.4865C10.1547 15.2047 9.94528 14.8523 9.94528 14.2886C9.94528 13.5135 10.3642 12.8087 11.6207 12.8087C11.9 12.8087 12.3188 12.8792 12.5981 12.8792L12.4584 13.8658C12.1792 13.7953 11.9 13.7953 11.6207 13.7953C11.2717 13.7953 11.0623 13.9363 11.0623 14.1477C11.132 14.4295 11.2019 14.5 11.6906 14.7114ZM14.1339 16.3322C14.2736 16.3322 14.3433 16.3322 14.4132 16.2617L14.2736 17.2484C13.9943 17.3187 13.715 17.3892 13.4358 17.3892C12.8773 17.3892 12.5283 17.0369 12.5283 16.4027C12.5283 16.1912 12.5981 15.698 12.6679 15.2752C12.7377 14.8523 13.1565 12.3154 13.1565 12.3154H14.2736L14.1339 12.9497H14.6924L14.5528 14.0067H13.9943C13.8547 14.8523 13.6452 15.8389 13.6452 15.9799C13.7849 16.1912 13.9245 16.3322 14.1339 16.3322ZM16.7867 16.4027C17.2055 16.4027 17.5546 16.3322 17.9735 16.1208L17.764 17.1779C17.3452 17.3187 16.9962 17.3187 16.5773 17.3187C15.3206 17.3187 14.6924 16.6845 14.6924 15.4161C14.6924 13.9363 15.5301 12.8087 16.6471 12.8087C17.5546 12.8087 18.1829 13.443 18.1829 14.359C18.1829 14.7114 18.1131 14.9933 18.0432 15.4161H15.8094C15.7395 16.1208 16.1584 16.4027 16.7867 16.4027ZM19.2999 17.3187H18.1829L18.2527 17.0369C18.4621 15.698 18.6716 14.359 18.8112 13.0201H19.8584C19.8584 13.2315 19.7885 13.443 19.7885 13.6543C20.1376 13.1611 20.4168 12.8792 20.9055 12.9497C20.7658 13.1611 20.5565 13.6543 20.4866 14.2181C19.7885 14.1477 19.7188 14.641 19.2999 17.3187ZM23.6281 17.2484C23.2092 17.3892 22.93 17.3892 22.6507 17.3892C21.464 17.3892 20.6961 16.4732 20.6961 15.0637C20.6961 13.1611 21.7433 11.8221 23.279 11.8221C23.7678 11.8221 24.3262 12.0336 24.5356 12.104L24.3262 13.2315C23.9074 13.0201 23.6281 12.9497 23.3488 12.9497C22.5111 12.9497 21.8829 13.7953 21.8829 14.9228C21.8829 15.698 22.3017 16.1912 22.93 16.1912C23.2092 16.1912 23.4885 16.1208 23.9074 15.9094L23.6281 17.2484ZM27.1186 17.3187C26.979 17.3187 26.2111 17.3187 26.2111 17.3187V16.896C25.9318 17.2484 25.5129 17.3892 25.0243 17.3892C24.396 17.3892 23.9771 16.896 23.9771 16.1912C23.9771 15.1342 24.6752 14.5 25.9318 14.5C26.0715 14.5 26.2111 14.5 26.4205 14.5C26.4903 14.359 26.4903 14.2886 26.4903 14.2181C26.4903 13.9363 26.2809 13.7953 25.7922 13.7953C25.2337 13.7953 24.8148 13.9363 24.6055 14.0067C24.6055 13.9363 24.7451 13.0201 24.7451 13.0201C25.3036 12.8792 25.6525 12.8087 26.0715 12.8087C27.0488 12.8087 27.5374 13.2315 27.5374 14.0772C27.5374 14.2886 27.5374 14.5705 27.4677 14.9228C27.3281 15.6275 27.1186 16.9664 27.1186 17.3187ZM28.6545 17.3187H27.5374L27.6073 17.0369C27.8167 15.698 28.0261 14.359 28.1658 13.0201H29.2129C29.2129 13.2315 29.1431 13.443 29.1431 13.6543C29.4922 13.1611 29.7714 12.8792 30.26 12.9497C30.1204 13.1611 29.911 13.6543 29.8412 14.2181C29.1431 14.1477 29.0035 14.641 28.6545 17.3187ZM32.0053 17.3187L32.0752 16.896C31.7959 17.2484 31.4468 17.3892 31.028 17.3892C30.1903 17.3892 29.6318 16.6845 29.6318 15.557C29.6318 14.1477 30.4695 12.8792 31.4468 12.8792C31.8657 12.8792 32.2148 13.0906 32.494 13.443L32.7732 11.8926H33.8902L33.0525 17.2484L32.0053 17.3187Z" fill="#DCDCDC"/>
    </g>
    <path d="M50.3872 8.8999L44.3872 20.0999H42.8672L48.8672 8.8999H50.3872Z" fill="#74937B"/>
    <g clip-path="url(#clip1_122_2281)">
        <mask id="mask0_122_2281" style="mask-type:luminance" maskUnits="userSpaceOnUse" x="58" y="0" width="49" height="29">
            <path d="M106.317 0H58.6074V29H106.317V0Z" fill="white"/>
        </mask>
        <g mask="url(#mask0_122_2281)">
            <path d="M78.09 6.85522L74.8711 22.3506H78.7727L81.894 6.85522H78.09Z" fill="#DCDCDC"/>
            <path d="M72.4325 6.85317L68.4333 17.3534L66.7752 8.38233C66.5801 7.36289 65.7998 6.85317 65.0195 6.85317H58.4843L58.3867 7.26094C59.7523 7.56678 61.2154 8.07649 62.1908 8.58621C62.776 8.89204 62.8736 9.19787 63.0687 9.9115L66.0924 22.2467H70.1891L76.4317 6.75122H72.4325V6.85317Z" fill="#DCDCDC"/>
            <path d="M102.768 6.85352H99.4521C98.6718 6.85352 98.0865 7.26129 97.794 7.9749L92.0391 22.3489H96.0383L96.8185 20.0043H101.696L102.183 22.3489H105.695L102.768 6.85352ZM98.0865 16.8441L100.135 11.0332L101.305 16.8441H98.0865Z" fill="#DCDCDC"/>
            <path d="M86.966 11.1358C86.966 10.6261 87.4537 10.0144 88.6243 9.81056C89.2094 9.70859 90.6725 9.70859 92.4283 10.5241L93.1111 7.26195C92.2333 6.95612 90.9652 6.54834 89.5021 6.54834C85.6981 6.54834 83.0644 8.68915 83.0644 11.6455C83.0644 13.8883 85.0153 15.1116 86.3808 15.8253C87.8439 16.5388 88.3316 17.0486 88.3316 17.7622C88.3316 18.7816 87.1612 19.2913 85.9906 19.2913C84.0398 19.2913 82.9669 18.7816 82.0891 18.2718L81.4062 21.636C82.2841 22.0438 83.9423 22.4516 85.6981 22.4516C89.6973 22.4516 92.3308 20.4127 92.3308 17.1505C92.3308 13.2766 86.8685 12.9708 86.966 11.1358Z" fill="#DCDCDC"/>
        </g>
    </g>
    <defs>
        <clipPath id="clip0_122_2281">
            <rect width="34.6957" height="21" fill="white" transform="translate(0.171875 4)"/>
        </clipPath>
        <clipPath id="clip1_122_2281">
            <rect width="48.6452" height="29" fill="white" transform="translate(58.3867)"/>
        </clipPath>
    </defs>
</svg>
