<svg width="196" height="24" viewBox="0 0 196 24" fill="none" xmlns="http://www.w3.org/2000/svg">
<path d="M8.04195 7.19996C8.59262 7.19996 8.86795 7.52196 8.86795 8.16596V16.174C8.86795 16.4167 8.80262 16.6173 8.67195 16.776C8.55062 16.9253 8.35462 17 8.08395 17C7.81328 17 7.61262 16.9207 7.48195 16.762C7.35128 16.6033 7.28595 16.4073 7.28595 16.174V10.336L5.88595 14.41C5.73662 14.9047 5.45195 15.152 5.03195 15.152C4.64928 15.152 4.37862 14.9093 4.21995 14.424L2.83395 10.322L2.81995 16.174C2.81995 16.4073 2.75462 16.6033 2.62395 16.762C2.49328 16.9207 2.29728 17 2.03595 17C1.77462 17 1.57862 16.9207 1.44795 16.762C1.31728 16.6033 1.25195 16.4073 1.25195 16.174V8.13796C1.25195 7.51263 1.54128 7.19996 2.11995 7.19996C2.55862 7.19996 2.87595 7.46129 3.07195 7.98396L5.05995 13.066L7.04795 8.01196C7.25328 7.47063 7.58462 7.19996 8.04195 7.19996ZM12.9077 9.92996C13.5703 9.92996 14.1303 10.112 14.5877 10.476C15.045 10.8307 15.2737 11.4 15.2737 12.184V16.174C15.2737 16.4073 15.2083 16.6033 15.0777 16.762C14.947 16.9207 14.751 17 14.4897 17C13.9857 17 13.7243 16.7433 13.7057 16.23C13.323 16.7807 12.7863 17.056 12.0957 17.056C11.5823 17.056 11.1577 16.8973 10.8217 16.58C10.4857 16.2627 10.313 15.81 10.3037 15.222C10.2943 14.41 10.5977 13.7987 11.2137 13.388C11.8297 12.9773 12.5997 12.772 13.5237 12.772H13.7057V12.324C13.7057 11.9693 13.617 11.722 13.4397 11.582C13.2623 11.4327 13.0057 11.358 12.6697 11.358C12.2683 11.358 11.8997 11.4467 11.5637 11.624C11.1437 11.8387 10.8497 11.75 10.6817 11.358C10.5043 10.9567 10.663 10.616 11.1577 10.336C11.6803 10.0653 12.2637 9.92996 12.9077 9.92996ZM12.6697 15.726C13.1923 15.726 13.5377 15.488 13.7057 15.012V13.64H13.4397C12.9357 13.64 12.5437 13.752 12.2637 13.976C11.9837 14.1907 11.8437 14.494 11.8437 14.886C11.8437 15.446 12.119 15.726 12.6697 15.726ZM21.1037 6.70996C21.6263 6.70996 21.8877 6.99463 21.8877 7.56396V16.174C21.8877 16.4073 21.8223 16.6033 21.6917 16.762C21.561 16.9207 21.365 17 21.1037 17C20.861 17 20.6743 16.9347 20.5437 16.804C20.413 16.664 20.3383 16.4867 20.3197 16.272C20.0117 16.804 19.5217 17.07 18.8497 17.07C18.1217 17.07 17.5383 16.7807 17.0997 16.202C16.661 15.6233 16.4417 14.7133 16.4417 13.472C16.4417 12.2307 16.661 11.33 17.0997 10.77C17.5383 10.21 18.1077 9.92996 18.8077 9.92996C19.517 9.92996 20.021 10.2007 20.3197 10.742V7.56396C20.3197 7.31196 20.385 7.10663 20.5157 6.94796C20.6463 6.78929 20.8423 6.70996 21.1037 6.70996ZM19.2137 15.642C19.8763 15.642 20.245 15.1007 20.3197 14.018V13.038C20.2917 12.506 20.1937 12.0953 20.0257 11.806C19.8577 11.5073 19.5823 11.358 19.1997 11.358C18.4343 11.358 18.0517 12.0673 18.0517 13.486C18.0517 14.9233 18.439 15.642 19.2137 15.642ZM27.0215 15.194C27.1615 15.054 27.3202 14.9933 27.4975 15.012C27.6842 15.0307 27.8335 15.1287 27.9455 15.306C28.1695 15.6513 28.0808 15.992 27.6795 16.328C27.2035 16.8227 26.5595 17.07 25.7475 17.07C24.8795 17.07 24.2075 16.762 23.7315 16.146C23.2648 15.53 23.0315 14.6573 23.0315 13.528C23.0315 12.3987 23.2788 11.5167 23.7735 10.882C24.2682 10.2473 24.9402 9.92996 25.7895 9.92996C26.5922 9.92996 27.1942 10.1867 27.5955 10.7C27.9968 11.204 28.1975 11.8853 28.1975 12.744C28.1975 13.2107 28.1228 13.5373 27.9735 13.724C27.8335 13.9013 27.5722 13.99 27.1895 13.99H24.5435C24.5808 14.578 24.6975 15.0027 24.8935 15.264C25.0895 15.516 25.3975 15.642 25.8175 15.642C26.3402 15.642 26.7415 15.4927 27.0215 15.194ZM25.6915 11.316C25.0008 11.316 24.6182 11.8527 24.5435 12.926H26.6435C26.6435 12.6647 26.6342 12.4547 26.6155 12.296C26.5968 12.1373 26.5595 11.974 26.5035 11.806C26.4475 11.638 26.3495 11.5167 26.2095 11.442C26.0788 11.358 25.9062 11.316 25.6915 11.316ZM39.9375 9.99996C40.2268 9.99996 40.4322 10.0887 40.5535 10.266C40.6842 10.434 40.7215 10.6347 40.6655 10.868L39.4195 16.244C39.3448 16.5427 39.2328 16.7573 39.0835 16.888C38.9435 17.0093 38.7335 17.07 38.4535 17.07C38.1548 17.07 37.9308 17.0047 37.7815 16.874C37.6415 16.7433 37.5388 16.5333 37.4735 16.244L36.5635 12.45L35.6955 16.244C35.5742 16.7947 35.2475 17.07 34.7155 17.07C34.4168 17.07 34.1928 17.0047 34.0435 16.874C33.9035 16.734 33.8055 16.524 33.7495 16.244L32.4615 10.882C32.4055 10.6487 32.4428 10.4433 32.5735 10.266C32.7135 10.0887 32.9282 9.99996 33.2175 9.99996C33.4788 9.99996 33.6608 10.0747 33.7635 10.224C33.8755 10.364 33.9548 10.5647 34.0015 10.826L34.7855 15.138L35.7515 10.686C35.8075 10.406 35.8915 10.2007 36.0035 10.07C36.1248 9.92996 36.3115 9.85996 36.5635 9.85996C36.8155 9.85996 36.9975 9.92529 37.1095 10.056C37.2308 10.1867 37.3195 10.3967 37.3755 10.686L38.3835 15.138L39.1395 10.826C39.2328 10.2753 39.4988 9.99996 39.9375 9.99996ZM43.3258 9.06196C43.1485 9.24863 42.9292 9.34196 42.6678 9.34196C42.4065 9.34196 42.1825 9.24863 41.9958 9.06196C41.8185 8.87529 41.7298 8.65129 41.7298 8.38996C41.7298 8.12863 41.8185 7.90929 41.9958 7.73196C42.1825 7.54529 42.4065 7.45196 42.6678 7.45196C42.9292 7.45196 43.1485 7.54529 43.3258 7.73196C43.5125 7.90929 43.6058 8.12863 43.6058 8.38996C43.6058 8.65129 43.5125 8.87529 43.3258 9.06196ZM43.4518 16.188C43.4518 16.4213 43.3865 16.6173 43.2558 16.776C43.1252 16.9347 42.9292 17.014 42.6678 17.014C42.4065 17.014 42.2105 16.9347 42.0798 16.776C41.9492 16.6173 41.8838 16.4213 41.8838 16.188V10.812C41.8838 10.28 42.1452 10.014 42.6678 10.014C42.9292 10.014 43.1252 10.0887 43.2558 10.238C43.3865 10.3873 43.4518 10.5787 43.4518 10.812V16.188ZM48.3821 15.656C48.8395 15.656 49.0681 15.866 49.0681 16.286C49.0681 16.762 48.7788 17 48.2001 17H47.5981C46.2448 17 45.5681 16.2767 45.5681 14.83V11.428H45.2741C44.7328 11.428 44.4621 11.19 44.4621 10.714C44.4621 10.238 44.7328 9.99996 45.2741 9.99996H45.5681V8.71196C45.5681 8.17996 45.8295 7.91396 46.3521 7.91396C46.8748 7.91396 47.1361 8.17996 47.1361 8.71196V9.99996H48.1441C48.3588 9.99996 48.5361 10.0653 48.6761 10.196C48.8255 10.3173 48.9001 10.49 48.9001 10.714C48.9001 10.938 48.8255 11.1153 48.6761 11.246C48.5361 11.3673 48.3588 11.428 48.1441 11.428H47.1361V14.522C47.1361 14.9327 47.1968 15.2267 47.3181 15.404C47.4395 15.572 47.6635 15.656 47.9901 15.656H48.3821ZM53.5277 9.92996C54.797 9.92996 55.4317 10.7047 55.4317 12.254V16.174C55.4317 16.4167 55.3663 16.6173 55.2357 16.776C55.105 16.9253 54.909 17 54.6477 17C54.3863 17 54.1903 16.9253 54.0597 16.776C53.929 16.6173 53.8637 16.4167 53.8637 16.174V12.884C53.8637 12.3613 53.789 11.9787 53.6397 11.736C53.4903 11.4933 53.2383 11.372 52.8837 11.372C52.5197 11.372 52.2303 11.4887 52.0157 11.722C51.8103 11.946 51.6843 12.254 51.6377 12.646V16.174C51.6377 16.4167 51.5723 16.6173 51.4417 16.776C51.311 16.9253 51.1103 17 50.8397 17C50.3263 17 50.0697 16.7247 50.0697 16.174V7.50796C50.0697 6.97596 50.3263 6.70996 50.8397 6.70996C51.3717 6.70996 51.6377 6.97596 51.6377 7.50796V10.994C52.0203 10.2847 52.6503 9.92996 53.5277 9.92996Z" fill="white"/>
<path d="M117.217 6.79997C117.622 6.79997 117.926 6.92264 118.129 7.16797C118.332 7.4133 118.433 7.73864 118.433 8.14397V16.832C118.433 17.1733 118.342 17.456 118.161 17.68C117.98 17.8933 117.692 18 117.297 18C116.913 18 116.63 17.8933 116.449 17.68C116.268 17.456 116.177 17.1733 116.177 16.832V11.232L115.105 14.912C114.913 15.6267 114.497 15.984 113.857 15.984C113.228 15.984 112.817 15.632 112.625 14.928L111.569 11.248V16.832C111.569 17.1733 111.473 17.456 111.281 17.68C111.1 17.8933 110.817 18 110.433 18C110.049 18 109.761 17.8933 109.569 17.68C109.388 17.456 109.297 17.1733 109.297 16.832V8.11197C109.297 7.7173 109.398 7.40264 109.601 7.16797C109.814 6.92264 110.134 6.79997 110.561 6.79997C110.828 6.79997 111.057 6.85864 111.249 6.97597C111.441 7.0933 111.58 7.22664 111.665 7.37597C111.761 7.51464 111.857 7.7013 111.953 7.93597L113.873 12.928L115.793 7.96797C116.081 7.1893 116.556 6.79997 117.217 6.79997ZM124.756 16.064C125.438 16.064 125.78 16.3787 125.78 17.008C125.78 17.296 125.689 17.536 125.508 17.728C125.326 17.9093 125.076 18 124.756 18H121.86C120.964 18 120.516 17.6 120.516 16.8V8.01597C120.516 7.6533 120.633 7.35997 120.868 7.13597C121.102 6.91197 121.433 6.79997 121.86 6.79997H124.756C125.438 6.79997 125.78 7.11997 125.78 7.75997C125.78 8.41064 125.438 8.73597 124.756 8.73597H122.788V11.44H124.324C124.921 11.44 125.22 11.76 125.22 12.4C125.22 13.0507 124.921 13.376 124.324 13.376H122.788V16.064H124.756ZM132.207 6.79997C132.975 6.79997 133.359 7.11997 133.359 7.75997C133.359 8.41064 132.975 8.73597 132.207 8.73597H131.023V16.832C131.023 17.1733 130.932 17.456 130.751 17.68C130.57 17.8933 130.282 18 129.887 18C129.503 18 129.22 17.8933 129.039 17.68C128.858 17.456 128.767 17.1733 128.767 16.832V8.73597H127.583C126.826 8.73597 126.447 8.4213 126.447 7.79197C126.447 7.13064 126.826 6.79997 127.583 6.79997H132.207ZM140.336 16.528C140.453 17.008 140.405 17.376 140.192 17.632C139.989 17.8773 139.723 18 139.392 18C138.773 18 138.363 17.6213 138.16 16.864L137.856 15.696H135.68L135.376 16.864C135.173 17.6213 134.757 18 134.128 18C133.787 18 133.509 17.888 133.296 17.664C133.093 17.4293 133.056 17.0507 133.184 16.528L135.344 7.88797C135.536 7.1093 136.005 6.71997 136.752 6.71997C137.509 6.71997 137.984 7.1093 138.176 7.88797L140.336 16.528ZM136.768 9.95197L136 13.76H137.52L136.768 9.95197ZM149.498 6.79997C149.904 6.79997 150.208 6.92264 150.41 7.16797C150.613 7.4133 150.714 7.73864 150.714 8.14397V16.832C150.714 17.1733 150.624 17.456 150.442 17.68C150.261 17.8933 149.973 18 149.578 18C149.194 18 148.912 17.8933 148.73 17.68C148.549 17.456 148.458 17.1733 148.458 16.832V11.232L147.386 14.912C147.194 15.6267 146.778 15.984 146.138 15.984C145.509 15.984 145.098 15.632 144.906 14.928L143.85 11.248V16.832C143.85 17.1733 143.754 17.456 143.562 17.68C143.381 17.8933 143.098 18 142.714 18C142.33 18 142.042 17.8933 141.85 17.68C141.669 17.456 141.578 17.1733 141.578 16.832V8.11197C141.578 7.7173 141.68 7.40264 141.882 7.16797C142.096 6.92264 142.416 6.79997 142.842 6.79997C143.109 6.79997 143.338 6.85864 143.53 6.97597C143.722 7.0933 143.861 7.22664 143.946 7.37597C144.042 7.51464 144.138 7.7013 144.234 7.93597L146.154 12.928L148.074 7.96797C148.362 7.1893 148.837 6.79997 149.498 6.79997ZM155.933 18.08C154.653 18.08 153.757 17.5947 153.245 16.624C152.733 15.6427 152.477 14.2347 152.477 12.4C152.477 10.4907 152.728 9.06664 153.229 8.12797C153.741 7.1893 154.642 6.71997 155.933 6.71997C157.224 6.71997 158.12 7.1893 158.621 8.12797C159.122 9.05597 159.373 10.48 159.373 12.4C159.373 13.296 159.32 14.0747 159.213 14.736C159.106 15.3867 158.925 15.9733 158.669 16.496C158.424 17.0187 158.072 17.4133 157.613 17.68C157.154 17.9467 156.594 18.08 155.933 18.08ZM156.829 9.63197C156.69 9.06664 156.392 8.78397 155.933 8.78397C155.474 8.78397 155.17 9.06664 155.021 9.63197C154.882 10.1973 154.813 11.12 154.813 12.4C154.813 13.6907 154.882 14.6187 155.021 15.184C155.17 15.7387 155.474 16.016 155.933 16.016C156.392 16.016 156.69 15.7387 156.829 15.184C156.978 14.6187 157.053 13.6907 157.053 12.4C157.053 11.12 156.978 10.1973 156.829 9.63197ZM163.125 17.68C162.943 17.8933 162.661 18 162.277 18C161.893 18 161.605 17.8933 161.413 17.68C161.231 17.456 161.141 17.1733 161.141 16.832V8.31997C161.141 7.30664 161.754 6.79997 162.981 6.79997H164.277C165.343 6.79997 166.154 7.08264 166.709 7.64797C167.263 8.20264 167.541 9.22664 167.541 10.72C167.541 12.3307 167.157 13.4613 166.389 14.112L167.333 16.656C167.471 17.008 167.434 17.3227 167.221 17.6C167.018 17.8667 166.709 18 166.293 18C165.994 18 165.754 17.9147 165.573 17.744C165.402 17.5733 165.253 17.2907 165.125 16.896L164.389 14.704C164.197 14.736 164.005 14.752 163.813 14.752H163.413V16.832C163.413 17.1733 163.317 17.456 163.125 17.68ZM164.085 8.86397H163.413V12.688H163.973C164.453 12.688 164.778 12.5653 164.949 12.32C165.119 12.0747 165.205 11.5627 165.205 10.784C165.205 10.0053 165.119 9.4933 164.949 9.24797C164.789 8.99197 164.501 8.86397 164.085 8.86397ZM173.413 6.79997C174.095 6.79997 174.437 7.11997 174.437 7.75997C174.437 8.41064 174.095 8.73597 173.413 8.73597H171.413V11.44H172.917C173.514 11.44 173.813 11.76 173.813 12.4C173.813 13.0507 173.514 13.376 172.917 13.376H171.413V16.848C171.413 17.1893 171.317 17.472 171.125 17.696C170.943 17.9093 170.661 18.016 170.277 18.016C169.893 18.016 169.605 17.9093 169.413 17.696C169.231 17.472 169.141 17.1893 169.141 16.848V8.01597C169.141 7.6533 169.258 7.35997 169.493 7.13597C169.727 6.91197 170.058 6.79997 170.485 6.79997H173.413ZM178.761 18.08C177.481 18.08 176.585 17.5947 176.073 16.624C175.561 15.6427 175.305 14.2347 175.305 12.4C175.305 10.4907 175.556 9.06664 176.057 8.12797C176.569 7.1893 177.47 6.71997 178.761 6.71997C180.052 6.71997 180.948 7.1893 181.449 8.12797C181.95 9.05597 182.201 10.48 182.201 12.4C182.201 13.296 182.148 14.0747 182.041 14.736C181.934 15.3867 181.753 15.9733 181.497 16.496C181.252 17.0187 180.9 17.4133 180.441 17.68C179.982 17.9467 179.422 18.08 178.761 18.08ZM179.657 9.63197C179.518 9.06664 179.22 8.78397 178.761 8.78397C178.302 8.78397 177.998 9.06664 177.849 9.63197C177.71 10.1973 177.641 11.12 177.641 12.4C177.641 13.6907 177.71 14.6187 177.849 15.184C177.998 15.7387 178.302 16.016 178.761 16.016C179.22 16.016 179.518 15.7387 179.657 15.184C179.806 14.6187 179.881 13.6907 179.881 12.4C179.881 11.12 179.806 10.1973 179.657 9.63197ZM189.137 17.264C188.54 17.808 187.713 18.08 186.657 18.08C185.601 18.08 184.817 17.8027 184.305 17.248C183.793 16.6933 183.537 16.016 183.537 15.216C183.537 14.288 183.921 13.824 184.689 13.824C185.425 13.824 185.793 14.1973 185.793 14.944C185.793 15.2853 185.878 15.552 186.049 15.744C186.22 15.9253 186.454 16.016 186.753 16.016C187.052 16.016 187.286 15.9253 187.457 15.744C187.628 15.552 187.713 15.2907 187.713 14.96C187.713 14.5973 187.585 14.288 187.329 14.032C187.084 13.776 186.588 13.424 185.841 12.976C185.5 12.7733 185.222 12.592 185.009 12.432C184.806 12.272 184.577 12.0587 184.321 11.792C184.076 11.5253 183.894 11.216 183.777 10.864C183.66 10.5013 183.601 10.096 183.601 9.64797C183.601 8.71997 183.878 7.99997 184.433 7.48797C184.998 6.97597 185.761 6.71997 186.721 6.71997C187.596 6.71997 188.3 6.94397 188.833 7.39197C189.377 7.8293 189.649 8.43197 189.649 9.19997C189.649 9.69064 189.537 10.0427 189.313 10.256C189.1 10.4693 188.822 10.576 188.481 10.576C188.172 10.576 187.91 10.496 187.697 10.336C187.494 10.1653 187.393 9.90397 187.393 9.55197C187.393 9.03997 187.142 8.78397 186.641 8.78397C186.129 8.78397 185.873 9.05064 185.873 9.58397C185.873 9.9893 186.001 10.3253 186.257 10.592C186.513 10.8587 186.95 11.168 187.569 11.52C188.454 12.0213 189.084 12.5333 189.457 13.056C189.841 13.568 190.033 14.192 190.033 14.928C190.033 15.9307 189.734 16.7093 189.137 17.264ZM191.578 7.99997C191.578 7.19997 191.957 6.79997 192.714 6.79997C193.472 6.79997 193.85 7.19997 193.85 7.99997V16.832C193.85 17.1733 193.754 17.456 193.562 17.68C193.381 17.8933 193.098 18 192.714 18C192.33 18 192.042 17.8933 191.85 17.68C191.669 17.456 191.578 17.1733 191.578 16.832V7.99997Z" fill="white"/>
<path d="M86.2578 8.24788C86.2578 10.4464 85.4385 12.4598 83.6795 14.5821C82.1054 16.4812 79.8439 18.4087 77.2245 20.6407C76.3295 21.4032 75.3153 22.2677 74.2629 23.1885C73.987 23.4298 73.6335 23.5637 73.2669 23.5658H73.2578C72.8876 23.5658 72.5308 23.4317 72.2527 23.1881C71.2023 22.2697 70.1897 21.4062 69.2963 20.6447L69.2917 20.6413C66.6727 18.4091 64.4102 16.4812 62.8365 14.5821C61.0771 12.4598 60.2578 10.4464 60.2578 8.24788C60.2578 6.11172 60.9904 4.14054 62.3204 2.69785C63.6665 1.23789 65.5133 0.434326 67.5211 0.434326C69.0221 0.434326 70.3962 0.90842 71.6064 1.84412C72.2172 2.31658 72.7704 2.89427 73.2578 3.5689L73.2669 3.55676C73.7523 2.88731 74.3026 2.31364 74.9096 1.84412C76.1194 0.90842 77.4941 0.434326 78.9946 0.434326C81.0028 0.434326 82.8496 1.23789 84.1953 2.69785C85.5252 4.14054 86.2578 6.11116 86.2578 8.24788Z" fill="#088DED"/>
<path d="M86.2584 8.24788C86.2584 10.4464 85.4392 12.4598 83.6801 14.5821C82.106 16.4812 79.8445 18.4087 77.2251 20.6407C76.3301 21.4032 75.3159 22.2677 74.2635 23.1885C73.9876 23.4298 73.6341 23.5637 73.2676 23.5658V3.55676C73.7529 2.88731 74.3032 2.31364 74.9102 1.84412C76.12 0.90842 77.4947 0.434326 78.9952 0.434326C81.0034 0.434326 82.8502 1.23789 84.1959 2.69785C85.5258 4.14054 86.2584 6.11116 86.2584 8.24788Z" fill="#FFD62F"/>
<path d="M94.2206 9.92996C95.6953 9.92996 96.4326 11.078 96.4326 13.374C96.4326 14.6153 96.2179 15.544 95.7886 16.16C95.3686 16.7667 94.8086 17.07 94.1086 17.07C93.4179 17.07 92.9233 16.7993 92.6246 16.258C92.6059 16.4727 92.5313 16.65 92.4006 16.79C92.2699 16.93 92.0786 17 91.8266 17C91.5653 17 91.3693 16.9253 91.2386 16.776C91.1173 16.6173 91.0566 16.4167 91.0566 16.174V7.56396C91.0566 6.99463 91.3133 6.70996 91.8266 6.70996C92.3586 6.70996 92.6246 6.99463 92.6246 7.56396V10.84C92.9419 10.2333 93.4739 9.92996 94.2206 9.92996ZM93.7026 15.642C94.4493 15.642 94.8226 14.9 94.8226 13.416C94.8226 12.044 94.4633 11.358 93.7446 11.358C93.3059 11.358 93.0073 11.554 92.8486 11.946C92.6993 12.338 92.6246 12.884 92.6246 13.584C92.6246 14.956 92.9839 15.642 93.7026 15.642ZM102.057 9.99996C102.57 9.99996 102.827 10.28 102.827 10.84V17.028C102.827 17.8773 102.598 18.5493 102.141 19.044C101.693 19.548 101.063 19.8 100.25 19.8H98.5424C98.3091 19.8 98.1318 19.7347 98.0104 19.604C97.8891 19.4827 97.8284 19.324 97.8284 19.128C97.8284 18.932 97.8891 18.7687 98.0104 18.638C98.1318 18.5167 98.3091 18.456 98.5424 18.456H99.9284C100.386 18.456 100.722 18.3487 100.937 18.134C101.152 17.9193 101.259 17.574 101.259 17.098V16.146C100.886 16.762 100.288 17.07 99.4664 17.07C98.7758 17.07 98.2718 16.8553 97.9544 16.426C97.6371 15.9873 97.4784 15.3293 97.4784 14.452V10.84C97.4784 10.28 97.7444 9.99996 98.2764 9.99996C98.7898 9.99996 99.0464 10.28 99.0464 10.84V14.074C99.0464 14.6247 99.1071 15.0213 99.2284 15.264C99.3591 15.5067 99.6158 15.628 99.9984 15.628C100.447 15.628 100.769 15.4833 100.965 15.194C101.161 14.8953 101.259 14.55 101.259 14.158V10.84C101.259 10.28 101.525 9.99996 102.057 9.99996Z" fill="white"/>
</svg>
