<svg width="24" height="24" viewBox="0 0 24 24" fill="none" xmlns="http://www.w3.org/2000/svg">
<path d="M5.30181 3.25209C5.236 3.1779 5.15611 3.11752 5.06678 3.07443C4.97746 3.03134 4.88047 3.00641 4.78144 3.00108C4.68241 2.99575 4.5833 3.01014 4.48987 3.04339C4.39644 3.07665 4.31053 3.12812 4.23714 3.19482C4.16374 3.26152 4.10432 3.34212 4.0623 3.43196C4.02029 3.52179 3.99652 3.61907 3.99238 3.71816C3.98824 3.81725 4.00381 3.91617 4.03819 4.0092C4.07256 4.10223 4.12506 4.18751 4.19263 4.2601L5.99505 6.24332C2.59256 8.33146 1.12927 11.5503 1.06463 11.6965C1.02202 11.7923 1 11.896 1 12.0009C1 12.1058 1.02202 12.2096 1.06463 12.3054C1.09742 12.3794 1.89089 14.1387 3.6549 15.9027C6.00535 18.2523 8.9741 19.4945 12.2417 19.4945C13.921 19.504 15.5834 19.1583 17.1196 18.4799L19.1806 20.7479C19.2464 20.8221 19.3263 20.8825 19.4156 20.9256C19.505 20.9687 19.602 20.9936 19.701 20.9989C19.8 21.0042 19.8991 20.9899 19.9926 20.9566C20.086 20.9234 20.1719 20.8719 20.2453 20.8052C20.3187 20.7385 20.3781 20.6579 20.4201 20.568C20.4621 20.4782 20.4859 20.3809 20.49 20.2818C20.4942 20.1828 20.4786 20.0838 20.4442 19.9908C20.4099 19.8978 20.3574 19.8125 20.2898 19.7399L5.30181 3.25209ZM9.73572 10.3568L13.6394 14.6521C13.0515 14.9614 12.3776 15.0666 11.7235 14.9514C11.0693 14.8361 10.472 14.5068 10.0252 14.0153C9.57847 13.5237 9.30763 12.8977 9.25523 12.2355C9.20284 11.5734 9.37184 10.9125 9.73572 10.3568ZM12.2417 17.9956C9.35819 17.9956 6.83911 16.9473 4.75378 14.8807C3.89783 14.03 3.16984 13.0597 2.59256 12C3.03193 11.1765 4.43433 8.872 7.02835 7.37405L8.7146 9.22424C8.06177 10.0603 7.72555 11.1003 7.76536 12.1604C7.80517 13.2204 8.21846 14.2322 8.93216 15.017C9.64586 15.8018 10.614 16.309 11.6655 16.4489C12.717 16.5889 13.7842 16.3526 14.6783 15.7819L16.0582 17.2995C14.8404 17.7668 13.5461 18.0028 12.2417 17.9956ZM12.8038 9.05561C12.6085 9.01835 12.436 8.90503 12.3243 8.74059C12.2125 8.57614 12.1707 8.37405 12.208 8.17876C12.2452 7.98348 12.3585 7.81099 12.523 7.69926C12.6874 7.58752 12.8895 7.54568 13.0848 7.58295C14.04 7.76813 14.9097 8.25713 15.5642 8.977C16.2188 9.69688 16.6231 10.6091 16.7168 11.5775C16.7353 11.7754 16.6744 11.9725 16.5476 12.1256C16.4208 12.2786 16.2383 12.3749 16.0404 12.3935C16.017 12.3948 15.9936 12.3948 15.9702 12.3935C15.7829 12.3943 15.602 12.3249 15.4633 12.199C15.3246 12.0731 15.2381 11.8999 15.2207 11.7133C15.1576 11.0692 14.8884 10.4626 14.4529 9.98375C14.0174 9.50491 13.4391 9.1794 12.8038 9.05561ZM23.4159 12.3054C23.3766 12.3935 22.4276 14.4947 20.2907 16.4086C20.2177 16.4761 20.132 16.5284 20.0386 16.5624C19.9452 16.5964 19.8459 16.6115 19.7466 16.6068C19.6473 16.6021 19.5499 16.5777 19.4601 16.535C19.3704 16.4923 19.29 16.4322 19.2237 16.3581C19.1573 16.284 19.1064 16.1975 19.0739 16.1035C19.0414 16.0096 19.0278 15.9101 19.0341 15.8109C19.0404 15.7116 19.0664 15.6147 19.1105 15.5256C19.1546 15.4365 19.216 15.3571 19.2912 15.2919C20.3395 14.3501 21.2201 13.2369 21.8955 12C21.3169 10.9393 20.5873 9.96833 19.7296 9.11744C17.6442 7.05272 15.1252 6.00443 12.2417 6.00443C11.6341 6.00369 11.0275 6.05288 10.428 6.15151C10.3305 6.16875 10.2306 6.16651 10.134 6.1449C10.0374 6.1233 9.94597 6.08277 9.86511 6.02565C9.78425 5.96853 9.7155 5.89595 9.66285 5.81211C9.61019 5.72827 9.57467 5.63483 9.55834 5.53718C9.542 5.43954 9.54517 5.33962 9.56767 5.24321C9.59017 5.14679 9.63155 5.05579 9.68942 4.97546C9.74728 4.89513 9.82049 4.82706 9.90482 4.77519C9.98914 4.72331 10.0829 4.68866 10.1807 4.67323C10.8619 4.56075 11.5512 4.50467 12.2417 4.50554C15.5093 4.50554 18.478 5.74775 20.8285 8.0982C22.5925 9.86221 23.3859 11.6225 23.4187 11.6965C23.4613 11.7923 23.4834 11.896 23.4834 12.0009C23.4834 12.1058 23.4613 12.2096 23.4187 12.3054H23.4159Z" fill="#242426"/>
</svg>
