<svg width="20" height="20" viewBox="0 0 20 20" fill="none" xmlns="http://www.w3.org/2000/svg">
<path fill-rule="evenodd" clip-rule="evenodd" d="M19.8216 8.00396H10.2114C10.2114 9.0034 10.2113 11.0021 10.2052 12.0015H15.7741C15.5607 13.001 14.8041 14.4005 13.7351 15.1051C13.7351 15.1051 13.733 15.1109 13.731 15.1099C12.3096 16.0484 10.4339 16.2614 9.04121 15.9815C6.85817 15.5478 5.13051 13.9646 4.42903 11.9537C4.43312 11.9507 4.43619 11.923 4.43926 11.921C4.0002 10.6737 4.0002 9.0034 4.43926 8.00396H4.43823C5.00391 6.16699 6.78361 4.491 8.96972 4.03226C10.728 3.65946 12.712 4.06302 14.1711 5.42826C14.3651 5.23837 16.8564 2.80582 17.0433 2.60793C12.0584 -1.90655 4.07677 -0.318482 1.09015 5.51127H1.08913C1.08913 5.51127 1.09016 5.51151 1.08403 5.5225C-0.393456 8.3859 -0.332194 11.7599 1.09424 14.4864C1.09015 14.4894 1.08709 14.4912 1.08403 14.4942C2.3767 17.0028 4.72924 18.9267 7.56372 19.6593C10.5749 20.4489 14.4069 19.9092 16.9739 17.5875L16.9769 17.5904C19.1518 15.6315 20.5057 12.2946 19.8216 8.00396Z" fill="#E36B40"/>
</svg>
